<?xml version="1.0" encoding="UTF-8" standalone="no"?> <!-- Created with Vectornator Pro for iOS (http://vectornator.io/) --><!DOCTYPE svg PUBLIC "-//W3C//DTD SVG 1.1//EN" "http://www.w3.org/Graphics/SVG/1.1/DTD/svg11.dtd">
<svg height="100%" style="fill-rule:evenodd;clip-rule:evenodd;stroke-linecap:round;stroke-linejoin:round;" xmlns:xlink="http://www.w3.org/1999/xlink" xmlns="http://www.w3.org/2000/svg" xml:space="preserve" width="100%" xmlns:vectornator="http://vectornator.io" version="1.1" viewBox="0 0 20 32">
<metadata>
<vectornator:setting key="RulersVisible" value="1"/>
<vectornator:setting key="SnapToEdges" value="0"/>
<vectornator:setting key="Units" value="Pixels"/>
<vectornator:setting key="DynamicGuides" value="1"/>
<vectornator:setting key="SnapToPoints" value="0"/>
<vectornator:setting key="SnapToGrid" value="0"/>
<vectornator:setting key="ShowGrid" value="1"/>
<vectornator:setting key="GridSpacing" value="36"/>
</metadata>
<defs/>
<g id="Layer 1" vectornator:layerName="Layer 1">
<path stroke="#000000" vectornator:shadowColor="#322c2c" vectornator:shadowOffset="11.2543" stroke-width="1.04" fill="#17ba83" stroke-linecap="round" vectornator:shadowAngle="1.5708" stroke-linejoin="round" opacity="1" vectornator:shadowRadius="10" d="M10.4375+0.96875C5.2584+0.968749+1.0625+5.16465+1.0625+10.3438C1.0625+10.6141+1.42398+13.6898+2.40625+16C8.3456+29.9685+10.6559+30.0625+10.4375+30.0625C10.4375+30.0625+16.0807+21.3032+18.5625+15.4062C19.4656+13.2604+19.8125+10.6391+19.8125+10.3438C19.8125+5.16465+15.6166+0.96875+10.4375+0.96875ZM10.5625+3.6875C13.9657+3.6875+16.7187+6.44053+16.7188+9.84375C16.7188+13.247+13.9657+16+10.5625+16C7.15928+16+4.40625+13.247+4.40625+9.84375C4.40625+6.44053+7.15928+3.6875+10.5625+3.6875Z" vectornator:shadowOpacity="1"/>
</g>
</svg>
